<svg width="125" height="40" viewBox="0 0 125 40" fill="none" xmlns="http://www.w3.org/2000/svg">
<path d="M19.0312 38.5C29.5419 38.5 38.0625 30.1053 38.0625 19.75C38.0625 9.39466 29.5419 1 19.0312 1C8.52058 1 0 9.39466 0 19.75C0 30.1053 8.52058 38.5 19.0312 38.5Z" fill="#FF0000"/>
<path d="M19.0313 31C25.3377 31 30.45 25.9632 30.45 19.75C30.45 13.5368 25.3377 8.5 19.0313 8.5C12.7249 8.5 7.6125 13.5368 7.6125 19.75C7.6125 25.9632 12.7249 31 19.0313 31Z" fill="#FF0000" stroke="white" stroke-width="1.2"/>
<path d="M58.4891 16.0656C57.5844 20.5234 56.8969 25.9656 56.5359 28.2125H56.2812C55.9891 25.8969 55.3016 20.4906 54.3641 16.1031L52.0469 5.18281H44.9844V34.6359H49.3641V10.3547L49.7969 12.6219L54.25 34.6312H58.6312L63.0109 12.6219L63.4797 10.3422V34.6344H67.8609V5.18124H60.7313L58.4891 16.0656ZM79.7031 30.2125C79.3031 31.0203 78.4375 31.5812 77.5656 31.5812C76.5531 31.5812 76.1531 30.8094 76.1531 28.9156V13.1156H71.1562V29.1937C71.1562 33.1625 72.4938 34.9844 75.4656 34.9844C77.4906 34.9844 79.1187 34.1062 80.2437 32.0016H80.3531L80.7859 34.6328H84.6953V13.1172H79.6984V30.2109H79.7031V30.2125ZM94.3625 21.6094C92.7328 20.45 91.7203 19.6781 91.7203 17.9937C91.7203 16.8016 92.2984 16.1344 93.6734 16.1344C95.0875 16.1344 95.5578 17.0797 95.5906 20.3125L99.7922 20.1391C100.117 14.9109 98.3422 12.7328 93.7453 12.7328C89.475 12.7328 87.3734 14.5922 87.3734 18.4172C87.3734 21.8922 89.1125 23.4719 91.9359 25.5453C94.3625 27.3719 95.775 28.3891 95.775 29.8641C95.775 30.9891 95.05 31.7594 93.7828 31.7594C92.2984 31.7594 91.4281 30.3891 91.65 28.0016L87.4156 28.0703C86.7609 32.5266 88.6125 35.125 93.5328 35.125C97.8422 35.125 100.088 33.1937 100.088 29.3344C100.083 25.8234 98.275 24.4172 94.3625 21.6094ZM107.613 13.1156H102.833V34.6312H107.614V13.1172L107.613 13.1156ZM105.258 4.61874C103.414 4.61874 102.542 5.28593 102.542 7.60468C102.542 9.99218 103.408 10.5875 105.259 10.5875C107.142 10.5875 107.975 9.98906 107.975 7.60468C107.975 5.39531 107.142 4.61874 105.258 4.61874ZM123.684 26.875L119.305 26.6641C119.305 30.4547 118.872 31.6828 117.389 31.6828C115.905 31.6828 115.65 30.3125 115.65 25.8547V21.6828C115.65 17.3625 115.942 15.9969 117.427 15.9969C118.802 15.9969 119.164 17.2937 119.164 21.2984L123.505 21.0203C123.797 17.6859 123.359 15.4031 122.022 14.1062C121.042 13.1562 119.559 12.7047 117.497 12.7047C112.647 12.7047 110.655 15.2328 110.655 22.3203V25.3391C110.655 32.6406 112.355 34.9922 117.317 34.9922C119.417 34.9922 120.864 34.5703 121.842 33.6578C123.252 32.3859 123.794 30.2125 123.686 26.875H123.684Z" fill="#212121"/>
<path d="M25.1109 19.7516L15.225 25.2891V14.2109L25.1109 19.7516Z" fill="white"/>
</svg>
